<svg width="328" height="215" viewBox="0 0 328 215" fill="none" xmlns="http://www.w3.org/2000/svg">
<path d="M93.284 190.776C87.908 190.776 85.22 188.088 85.22 182.712V31.032C85.22 25.656 87.908 22.968 93.284 22.968C97.0386 22.968 100.068 24.7174 102.372 28.216L164.964 123.448L161.38 123.96L224.228 28.216C226.447 24.7174 229.689 22.968 233.956 22.968C238.564 22.968 240.868 25.656 240.868 31.032V182.712C240.868 188.088 238.18 190.776 232.804 190.776C227.428 190.776 224.74 188.088 224.74 182.712V47.16L229.604 48.824L172.26 135.224C169.956 138.723 166.713 140.472 162.532 140.472C159.204 140.472 156.388 138.723 154.084 135.224L96.74 48.824L101.348 50.36V182.712C101.348 188.088 98.66 190.776 93.284 190.776Z" fill="black"/>
<path d="M319.85 214.784H298.346C296.383 214.784 294.677 214.059 293.226 212.608C291.861 211.243 291.178 209.579 291.178 207.616C291.178 205.568 291.861 203.861 293.226 202.496C294.677 201.131 296.383 200.448 298.346 200.448H312.682V14.336H298.346C296.383 14.336 294.677 13.6533 293.226 12.288C291.861 10.8373 291.178 9.13067 291.178 7.168C291.178 5.12 291.861 3.41332 293.226 2.04799C294.677 0.682663 296.383 0 298.346 0H319.85C324.629 0 327.018 2.38933 327.018 7.168V207.616C327.018 212.395 324.629 214.784 319.85 214.784Z" fill="black"/>
<path d="M7.168 214.784C2.38933 214.784 0 212.395 0 207.616V7.168C0 2.38933 2.38933 0 7.168 0H28.672C30.72 0 32.4267 0.682663 33.792 2.04799C35.1573 3.41332 35.84 5.12 35.84 7.168C35.84 9.13067 35.1573 10.8373 33.792 12.288C32.4267 13.6533 30.72 14.336 28.672 14.336H14.336V200.448H28.672C30.72 200.448 32.4267 201.131 33.792 202.496C35.1573 203.861 35.84 205.568 35.84 207.616C35.84 209.579 35.1573 211.243 33.792 212.608C32.4267 214.059 30.72 214.784 28.672 214.784H7.168Z" fill="black"/>
</svg>
